<?xml version="1.0" encoding="UTF-8" standalone="no"?>
<svg
   xmlns:dc="http://purl.org/dc/elements/1.1/"
   xmlns:cc="http://creativecommons.org/ns#"
   xmlns:rdf="http://www.w3.org/1999/02/22-rdf-syntax-ns#"
   xmlns:svg="http://www.w3.org/2000/svg"
   xmlns="http://www.w3.org/2000/svg"
   version="1.1"
   id="Capa_1"
   x="0px"
   y="0px"
   viewBox="0 0 479.68 479.68"
   style="enable-background:new 0 0 479.68 479.68;"
   xml:space="preserve"><metadata
   id="metadata898"><rdf:RDF><cc:Work
       rdf:about=""><dc:format>image/svg+xml</dc:format><dc:type
         rdf:resource="http://purl.org/dc/dcmitype/StillImage" /><dc:title></dc:title></cc:Work></rdf:RDF></metadata><defs
   id="defs896" />
<g
   id="g891">
	<g
   id="g889">
		<path
   d="M342.128,426v-98V120v-8h-0.408C337.576,49.56,285.592,0,222.128,0h-208c-4.416,0-8,3.584-8,8    c0,36.28,16.248,68.784,41.776,90.808c-6.376,17.008-9.776,34.848-9.776,53.192v144c0,4.416,3.584,8,8,8h32v80    c0,4.416,3.584,8,8,8h112v34L66.712,464.32l4.48,15.36l134.168-39.12l61.2,30.6c1.112,0.56,2.344,0.84,3.568,0.84    s2.456-0.28,3.576-0.84l61.2-30.6l134.168,39.12l4.48-15.36L342.128,426z M22.432,16h199.696c5.456,0,10.768,0.552,16,1.36V112    h-112C71.472,112,26.528,69.624,22.432,16z M246.128,168c26.472,0,48,21.528,48,48c0,2.864-0.304,5.656-0.784,8.384    c-0.056,0.304-0.08,0.608-0.136,0.904c-0.488,2.48-1.208,4.872-2.056,7.2c-0.192,0.528-0.368,1.072-0.584,1.592    c-0.848,2.096-1.88,4.104-3.008,6.04c-0.392,0.672-0.784,1.336-1.208,1.984c-1.144,1.76-2.4,3.432-3.752,5.024    c-0.568,0.664-1.16,1.312-1.768,1.944c-1.424,1.496-2.92,2.912-4.528,4.208c-0.632,0.512-1.304,0.992-1.968,1.472    c-1.768,1.288-3.6,2.504-5.552,3.544c-0.512,0.272-1.048,0.496-1.568,0.76c-2.232,1.088-4.528,2.08-6.944,2.816    c-0.184,0.056-0.376,0.088-0.56,0.144c-2.728,0.792-5.544,1.392-8.456,1.704h-0.008c-1.688,0.176-3.392,0.28-5.12,0.28    c-26.472,0-48-21.528-48-48S219.656,168,246.128,168z M326.128,427.056l-56,28l-56-28V384c0-4.416-3.584-8-8-8h-112v-80    c0-4.416-3.584-8-8-8h-32V152c0-14.84,2.48-29.304,7.144-43.192C80,120.896,102.232,128,126.128,128h112v24.552    c-31.52,3.96-56,30.872-56,63.448s24.48,59.488,56,63.448V320h-73.472c-3.312-9.288-12.112-16-22.528-16h-8    c-13.232,0-24,10.768-24,24s10.768,24,24,24h8c10.416,0,19.216-6.712,22.528-16h81.472c4.416,0,8-3.584,8-8v-35.048    c16.056,24.464,42.328,40.28,72,42.704V427.056z M150.128,328c0,4.408-3.592,8-8,8h-8c-4.408,0-8-3.592-8-8c0-4.408,3.592-8,8-8h8    C146.536,320,150.128,323.592,150.128,328z M326.128,319.608c-26.72-2.624-50.016-18.312-62.552-42.016    c0.368-0.104,0.712-0.24,1.072-0.352c0.432-0.128,0.856-0.28,1.288-0.416c1.608-0.52,3.176-1.096,4.72-1.728    c0.216-0.088,0.432-0.176,0.648-0.272c17.12-7.288,30.208-21.72,35.808-39.456c0.104-0.32,0.192-0.648,0.288-0.976    c0.456-1.528,0.856-3.072,1.2-4.648c0.112-0.528,0.232-1.048,0.336-1.584c0.28-1.456,0.496-2.936,0.68-4.424    c0.064-0.552,0.152-1.096,0.208-1.656c0.184-2,0.304-4.024,0.304-6.08c0-2.128-0.112-4.224-0.32-6.296    c-0.072-0.696-0.2-1.376-0.288-2.064c-0.176-1.36-0.36-2.728-0.624-4.064c-0.16-0.8-0.376-1.584-0.56-2.376    c-0.28-1.192-0.568-2.384-0.912-3.552c-0.248-0.824-0.544-1.624-0.816-2.432c-0.376-1.096-0.76-2.192-1.192-3.256    c-0.336-0.816-0.696-1.608-1.064-2.408c-0.464-1.024-0.944-2.032-1.456-3.024c-0.408-0.792-0.848-1.56-1.288-2.328    c-0.552-0.96-1.12-1.896-1.72-2.824c-0.48-0.752-0.984-1.48-1.496-2.208c-0.632-0.896-1.288-1.768-1.968-2.624    c-0.552-0.696-1.104-1.392-1.68-2.064c-0.72-0.84-1.464-1.64-2.224-2.44c-0.6-0.632-1.2-1.272-1.824-1.88    c-0.808-0.784-1.648-1.528-2.496-2.264c-0.64-0.56-1.272-1.136-1.936-1.672c-0.912-0.736-1.864-1.416-2.816-2.104    c-0.656-0.472-1.288-0.968-1.96-1.416c-1.072-0.712-2.192-1.36-3.304-2.008c-0.6-0.352-1.176-0.728-1.792-1.064    c-1.68-0.904-3.408-1.744-5.176-2.496c-0.072-0.032-0.136-0.072-0.208-0.096c-1.84-0.784-3.736-1.464-5.656-2.072    c-0.616-0.192-1.256-0.328-1.88-0.504c-1.328-0.376-2.656-0.744-4.016-1.04c-0.768-0.16-1.552-0.264-2.32-0.4    c-1-0.176-1.984-0.392-3-0.52V120V21.088c41.72,13.536,71.992,52.736,71.992,98.912V319.608z"
   style="fill:currentColor;stroke: currentColor; stroke-width: 15px;"
   id="path887" />
	</g>
</g>
</svg>
