<?xml version="1.0" encoding="UTF-8" standalone="no"?>
<svg
   xmlns:dc="http://purl.org/dc/elements/1.1/"
   xmlns:cc="http://creativecommons.org/ns#"
   xmlns:rdf="http://www.w3.org/1999/02/22-rdf-syntax-ns#"
   xmlns:svg="http://www.w3.org/2000/svg"
   xmlns="http://www.w3.org/2000/svg"
   version="1.1"
   width="512"
   height="512"
   x="0"
   y="0"
   viewBox="0 0 512 512"
   style="enable-background:new 0 0 512 512"
   xml:space="preserve"
   class=""
   id="svg5339"><metadata
     id="metadata5345"><rdf:RDF><cc:Work
         rdf:about=""><dc:format>image/svg+xml</dc:format><dc:type
           rdf:resource="http://purl.org/dc/dcmitype/StillImage" /><dc:title></dc:title></cc:Work></rdf:RDF></metadata><defs
     id="defs5343" /><g
     id="g5337">
<g
   id="g5287">
	<g
   id="g5285">
		<path
   d="M467,61H45c-6.927,0-13.412,1.703-19.279,4.51L255,294.789l51.389-49.387c0,0,0.004-0.005,0.005-0.007    c0.001-0.002,0.005-0.004,0.005-0.004L486.286,65.514C480.418,62.705,473.929,61,467,61z"
   fill="currentColor"
   data-original="#000000"
   style=""
   class=""
   id="path5283" />
	</g>
</g>
<g
   id="g5293">
	<g
   id="g5291">
		<path
   d="M507.496,86.728L338.213,256.002L507.49,425.279c2.807-5.867,4.51-12.352,4.51-19.279V106    C512,99.077,510.301,92.593,507.496,86.728z"
   fill="currentColor"
   data-original="#000000"
   style=""
   class=""
   id="path5289" />
	</g>
</g>
<g
   id="g5299">
	<g
   id="g5297">
		<path
   d="M4.51,86.721C1.703,92.588,0,99.073,0,106v300c0,6.923,1.701,13.409,4.506,19.274L173.789,256L4.51,86.721z"
   fill="currentColor"
   data-original="#000000"
   style=""
   class=""
   id="path5295" />
	</g>
</g>
<g
   id="g5305">
	<g
   id="g5303">
		<path
   d="M317.002,277.213l-51.396,49.393c-2.93,2.93-6.768,4.395-10.605,4.395s-7.676-1.465-10.605-4.395L195,277.211    L25.714,446.486C31.582,449.295,38.071,451,45,451h422c6.927,0,13.412-1.703,19.279-4.51L317.002,277.213z"
   fill="currentColor"
   data-original="#000000"
   style=""
   class=""
   id="path5301" />
	</g>
</g>
<g
   id="g5307">
</g>
<g
   id="g5309">
</g>
<g
   id="g5311">
</g>
<g
   id="g5313">
</g>
<g
   id="g5315">
</g>
<g
   id="g5317">
</g>
<g
   id="g5319">
</g>
<g
   id="g5321">
</g>
<g
   id="g5323">
</g>
<g
   id="g5325">
</g>
<g
   id="g5327">
</g>
<g
   id="g5329">
</g>
<g
   id="g5331">
</g>
<g
   id="g5333">
</g>
<g
   id="g5335">
</g>
</g></svg>
